<?xml version="1.0" encoding="utf-8"?>
<!DOCTYPE svg PUBLIC "-//W3C//DTD SVG 20010904//EN" "http://www.w3.org/TR/2001/REC-SVG-20010904/DTD/svg10.dtd">
<svg version="1.0" xmlns="http://www.w3.org/2000/svg" width="938pt" height="394pt" viewBox="0 0 938 394" preserveAspectRatio="xMidYMid meet">
	<g class="primary" transform="translate(0.000000,394.000000) scale(0.100000,-0.100000)" fill="#000000FF" stroke="none">
		<path class="path-PROJ" d="M1055 3249 c-192 -14 -347 -53 -502 -125 -222 -102 -345 -236 -375 -406 -15 -84 3 -203 39 -270 49 -90 164 -173 255 -186 38 -5 38 -4 62 51 25 56 56 162 56 191 0 9 -15 20 -40 27 -52 16 -117 72 -125 108 -12 56 12 110 78 176 134 133 347 204 608 205 204 0 327 -47 381 -145 57 -106 56 -322 -2 -452 -56 -124 -166 -195 -277 -178 -40 6 -44 9 -40 28 3 12 26 114 53 227 40 174 47 221 48 312 1 141 2 140 -141 146 -128 5 -263 -21 -346 -65 -67 -36 -73 -65 -26 -123 32 -39 32 -40 26 -127 -7 -106 -38 -256 -122 -593 -86 -343 -113 -464 -136 -600 -22 -132 -22 -133 59 -144 99 -13 376 29 400 61 6 9 12 34 12 54 0 71 98 590 114 607 3 2 34 -1 69 -7 226 -39 458 23 616 165 51 46 131 150 145 188 6 17 10 15 32 -18 37 -54 64 -117 64 -151 0 -16 -23 -140 -50 -275 -80 -387 -95 -487 -84 -556 l9 -59 129 2 c130 2 243 15 290 33 25 9 26 12 26 99 0 89 37 332 80 531 12 52 24 107 27 123 5 26 54 77 73 77 5 0 27 -26 49 -59 22 -32 47 -61 55 -64 25 -10 87 14 175 66 33 20 34 20 28 1 -45 -142 -50 -172 -51 -314 -1 -126 2 -155 22 -220 55 -175 160 -269 328 -293 197 -29 373 59 503 252 71 105 102 179 166 398 4 12 46 26 119 39 l38 7 -7 -64 c-11 -100 -63 -404 -86 -503 -63 -273 -135 -396 -233 -396 -23 0 -67 16 -118 41 -44 22 -84 37 -87 32 -52 -76 -81 -122 -81 -131 0 -21 125 -122 199 -161 141 -73 287 -81 399 -21 65 34 150 111 195 176 82 121 148 366 231 869 52 309 60 373 60 490 1 104 -2 125 -20 155 -19 34 -22 35 -90 38 -88 4 -314 -15 -379 -31 -49 -13 -50 -14 -53 -55 -3 -34 4 -52 37 -103 42 -65 59 -115 44 -130 -6 -6 -42 -13 -81 -16 l-72 -6 0 41 c0 96 -45 224 -97 277 -42 41 -90 57 -153 51 -30 -3 -113 -10 -185 -15 -71 -5 -148 -14 -170 -21 -74 -22 -158 -74 -221 -137 l-62 -62 -11 57 c-22 110 -75 162 -168 162 -69 0 -141 -28 -202 -79 -52 -43 -71 -50 -71 -26 0 8 -7 33 -16 55 l-16 40 -87 0 c-105 0 -304 -17 -350 -30 -32 -9 -33 -8 -27 18 17 71 18 248 2 316 -60 254 -272 391 -659 425 -137 12 -134 12 -282 0z m2289 -1042 c-8 -57 17 -143 52 -181 31 -33 118 -76 154 -76 45 -1 51 -11 36 -61 -37 -124 -129 -259 -193 -286 -92 -38 -137 15 -150 177 -11 141 37 387 90 458 15 20 17 14 11 -31z"/>
		<path class="path-dot" d="M4219 3134 c-57 -18 -121 -72 -156 -131 -21 -37 -27 -58 -26 -107 1 -110 54 -184 152 -213 100 -29 210 5 283 85 54 59 62 80 62 158 1 62 -3 77 -29 119 -53 86 -176 125 -286 89z"/>
		<path class="path-E" d="M4980 2506 c-153 -46 -302 -157 -382 -286 -78 -124 -108 -242 -108 -413 0 -178 38 -299 124 -394 117 -130 331 -158 559 -73 107 40 297 181 297 220 0 21 -80 129 -96 130 -6 0 -29 -14 -50 -31 -89 -71 -214 -111 -279 -89 -42 14 -81 58 -94 107 -13 45 -9 51 37 58 67 12 196 56 282 97 65 31 102 58 156 112 63 63 74 80 93 140 81 262 -72 447 -366 445 -71 0 -119 -7 -173 -23z m150 -233 c25 -74 -15 -208 -82 -270 -27 -25 -99 -63 -109 -57 -7 4 13 126 31 193 44 163 126 232 160 134z"/>
		<path class="path-C" d="M5975 2511 c-215 -61 -371 -227 -437 -466 -25 -91 -35 -301 -18 -376 38 -169 107 -274 215 -329 154 -78 374 -58 557 51 86 50 184 132 193 159 5 15 -6 37 -37 80 -24 33 -46 60 -50 60 -4 0 -33 -18 -64 -40 -74 -51 -151 -80 -218 -80 -65 0 -99 23 -129 89 -30 66 -30 290 0 406 45 173 93 255 149 255 29 0 29 -5 8 -118 -16 -84 -16 -84 7 -108 46 -49 211 -108 283 -102 34 3 44 10 71 49 38 55 60 150 51 215 -17 127 -111 220 -263 259 -78 20 -241 18 -318 -4z"/>
		<path class="path-T" d="M7035 2913 c-52 -7 -168 -34 -230 -54 l-60 -19 -1 -113 c0 -61 -4 -138 -8 -169 l-7 -58 -79 0 c-92 0 -90 3 -90 -132 0 -119 0 -119 71 -111 47 5 59 3 59 -8 0 -8 -16 -87 -35 -174 -60 -271 -65 -296 -79 -420 -24 -198 6 -278 124 -341 53 -29 194 -24 281 9 95 37 265 142 291 181 11 17 -64 148 -82 142 -8 -2 -42 -16 -75 -30 -94 -40 -98 -38 -90 37 13 117 35 252 71 440 l36 188 108 -2 c60 -1 113 2 119 5 11 7 45 116 56 179 l6 37 -121 0 c-89 0 -120 3 -120 13 0 6 7 53 15 102 17 105 19 214 4 268 l-10 37 -62 -1 c-34 -1 -75 -4 -92 -6z"/>
	</g>
	<g class="secondary" fill="#FF7722FF" stroke="none">
		<path class="path-D" d="M 790.060 76.091 C 780.472 78.565 776.715 81.093 761.930 95.022 C 755.228 101.335 747.269 108.822 744.242 111.660 C 739.629 115.985 738.839 117.222 739.360 119.300 C 740.231 122.768 743.286 123.227 753.096 121.366 C 769.065 118.335 767.900 118.231 767.408 122.650 C 767.032 126.025 766.497 133.208 764.363 163.500 C 764.092 167.350 763.450 175.450 762.936 181.500 C 762.422 187.550 761.529 200.375 760.951 210.000 L 759.901 227.500 754.268 238.500 C 751.169 244.550 747.418 251.898 745.931 254.830 C 742.938 260.734 743.103 263.737 746.467 264.581 C 750.110 265.495 792.802 264.367 802.000 263.114 C 822.528 260.316 841.505 254.970 857.871 247.373 C 898.687 228.428 920.036 196.162 919.982 153.500 C 919.948 126.009 910.955 108.399 889.000 92.827 C 874.522 82.557 868.383 80.180 843.174 75.078 C 840.244 74.485 828.769 74.039 817.674 74.086 C 801.233 74.156 796.123 74.527 790.060 76.091 M 834.672 114.732 C 848.808 118.499 858.786 132.663 862.567 154.333 C 864.288 164.196 863.573 175.694 860.454 188.290 C 856.987 202.297 847.337 214.770 835.713 220.270 C 830.538 222.719 811.552 227.011 810.678 225.929 C 810.488 225.693 810.684 221.225 811.114 216.000 C 811.544 210.775 812.609 197.950 813.480 187.500 C 814.351 177.050 815.501 162.200 816.035 154.500 C 816.569 146.800 817.455 138.062 818.003 135.083 C 818.551 132.104 819.000 126.816 819.000 123.333 C 819.000 113.036 822.042 111.367 834.672 114.732 "/>
	</g>
</svg>
